<svg width="26" height="16" viewBox="0 0 26 16" fill="none" xmlns="http://www.w3.org/2000/svg">
<path d="M24.6198 6.30001C19.9998 -0.139988 10.8998 -1.67999 4.45977 3.08001C2.77977 4.34001 1.37977 6.02001 0.259766 7.84001C0.539766 8.40001 0.959766 8.96001 1.37977 9.52001C5.99977 15.96 14.8198 17.36 21.2598 12.88C22.5198 11.9 23.6398 10.92 24.6198 9.52001C25.0398 8.96001 25.3198 8.40001 25.7398 7.84001C25.3198 7.28001 25.0398 6.72001 24.6198 6.30001ZM13.1398 3.08001C13.8398 2.38001 14.9598 2.38001 15.6598 3.08001C16.3598 3.78001 16.3598 4.90001 15.6598 5.60001C14.9598 6.30001 13.8398 6.30001 13.1398 5.60001C12.4398 4.90001 12.4398 3.78001 13.1398 3.08001ZM12.9998 13.86C8.65977 13.86 4.59977 11.62 2.21977 7.98001C3.89977 5.60001 6.13977 3.92001 8.79977 3.08001C7.81977 4.20001 7.39977 5.46001 7.39977 6.86001C7.39977 9.94001 9.77977 12.6 12.9998 12.6C16.0798 12.6 18.7398 10.22 18.7398 7.00001V6.86001C18.7398 5.46001 18.1798 4.06001 17.1998 3.08001C19.8598 3.92001 22.0998 5.60001 23.7798 7.98001C21.3998 11.62 17.3398 13.86 12.9998 13.86Z" fill="#80868B"/>
</svg>
