<svg width="12" height="22" viewBox="0 0 12 22" fill="none" xmlns="http://www.w3.org/2000/svg">
<path d="M11.1998 5.79998C11.1998 8.21798 9.5358 10.233 7.2998 10.818V18.8C7.2998 20.1 4.6998 21.4 4.6998 21.4V10.818C2.4638 10.233 0.799805 8.21798 0.799805 5.79998C0.799805 2.92698 3.1268 0.599976 5.9998 0.599976C8.8728 0.599976 11.1998 2.92698 11.1998 5.79998ZM3.3998 4.49998C3.3998 5.21498 3.9848 5.79998 4.6998 5.79998C5.4148 5.79998 5.9998 5.21498 5.9998 4.49998C5.9998 3.78498 5.4148 3.19998 4.6998 3.19998C3.9848 3.19998 3.3998 3.78498 3.3998 4.49998Z" fill="#80868B"/>
</svg>
