<svg width="16" height="16" viewBox="0 0 16 16" fill="none" xmlns="http://www.w3.org/2000/svg">
<path d="M2.66688 4V13.7778C2.66275 13.9488 2.69235 14.119 2.754 14.2785C2.81565 14.4381 2.90814 14.584 3.02619 14.7078C3.14423 14.8316 3.28551 14.931 3.44196 15.0002C3.59842 15.0694 3.76697 15.1071 3.938 15.1111H12.0402C12.2131 15.11 12.3841 15.0744 12.5431 15.0065C12.7021 14.9386 12.846 14.8397 12.9664 14.7156C13.0868 14.5915 13.1813 14.4446 13.2443 14.2836C13.3074 14.1226 13.3377 13.9506 13.3336 13.7778V4H2.66688ZM6.66688 12.8889H5.778V6.22222H6.66688V12.8889ZM10.2224 12.8889H9.33355V6.22222H10.2224V12.8889Z" fill="#80868B"/>
<path d="M13.6578 2.22225H10.2223V1.7778C10.2223 1.54206 10.1286 1.31596 9.96193 1.14927C9.79523 0.982567 9.56914 0.888916 9.33339 0.888916H6.57783C6.35781 0.911026 6.15393 1.01435 6.006 1.17872C5.85808 1.34308 5.77672 1.55668 5.77783 1.7778V2.22225H2.22228C2.1044 2.22225 1.99136 2.26907 1.90801 2.35242C1.82466 2.43577 1.77783 2.54882 1.77783 2.66669C1.77783 2.78457 1.82466 2.89761 1.90801 2.98096C1.99136 3.06431 2.1044 3.11114 2.22228 3.11114H13.6578C13.7757 3.11114 13.8888 3.06431 13.9721 2.98096C14.0555 2.89761 14.1023 2.78457 14.1023 2.66669C14.1023 2.54882 14.0555 2.43577 13.9721 2.35242C13.8888 2.26907 13.7757 2.22225 13.6578 2.22225Z" fill="#80868B"/>
</svg>
