<svg width="165" height="153" viewBox="0 0 165 153" fill="none" xmlns="http://www.w3.org/2000/svg">
<g clip-path="url(#clip0_101_605)">
<path opacity="0.24" d="M152.313 129.716C150.386 131.131 148.281 132.286 146.053 133.152C142.196 134.648 138.087 135.317 134.129 136.47C132.372 136.976 130.648 137.59 128.956 138.26C118.712 142.293 109.309 148.691 98.5324 151.026C78.5622 155.385 59.2615 145.474 40.173 141.271C23.818 137.678 10.5263 146.267 3.92295 120.278C1.16337 109.459 -2.25263 98.0025 1.92429 87.6206C6.10122 77.2387 11.9829 67.6504 15.9671 57.2162C21.6561 42.3145 23.7625 25.1463 34.9576 13.7749C42.7106 5.90111 53.7913 2.09975 64.7676 0.750982C75.7439 -0.597783 86.8573 0.267647 97.9087 0.313368C111.22 0.355823 125.4 -0.578189 136.912 6.12318C140.972 8.52361 144.471 11.765 147.175 15.6297C149.879 19.4943 151.724 23.8928 152.588 28.5297C154.874 41.3282 149.446 54.5971 151.885 67.3728C154.149 79.2667 162.989 89.2208 164.717 101.213C166.284 112.009 161.079 123.335 152.313 129.716Z" fill="#0F75BC"/>
<path d="M130.627 22.4193V127.616C130.628 128.94 130.368 130.251 129.862 131.474C129.357 132.697 128.615 133.808 127.68 134.745C126.745 135.681 125.634 136.424 124.412 136.932C123.189 137.439 121.879 137.7 120.555 137.701H54.1166C52.793 137.701 51.4824 137.439 50.2598 136.932C49.0372 136.425 47.9265 135.682 46.9912 134.746C46.0559 133.809 45.3142 132.697 44.8087 131.474C44.3032 130.251 44.0436 128.94 44.0449 127.616V22.4193C44.0449 19.7481 45.106 17.1864 46.9948 15.2976C48.8836 13.4088 51.4454 12.3477 54.1166 12.3477H120.555C123.226 12.3494 125.787 13.4111 127.675 15.2995C129.564 17.1879 130.625 19.7487 130.627 22.4193Z" fill="#0F75BC"/>
<path d="M60.3849 82.9013C58.3862 87.7999 54.046 91.1147 50.2904 94.6189C48.357 96.4216 46.8646 98.4333 45.1402 100.386C44.8272 100.724 44.4595 101.007 44.0527 101.222V81.2096C44.587 79.5114 44.9298 77.7588 45.0749 75.9844C45.7281 78.1365 45.4342 80.7622 47.0932 82.2906C48.1611 83.2899 49.7319 83.4663 51.1917 83.5316C54.2699 83.6568 57.3526 83.4455 60.3849 82.9013Z" fill="url(#paint0_linear_101_605)"/>
<path d="M121.676 21.3203H51.3672V126.681H121.676V21.3203Z" fill="url(#paint1_linear_101_605)"/>
<path d="M122.699 20.4863V125.543H61.1982C61.1982 125.543 52.6745 123.75 52.2238 109.384C51.7732 95.0178 52.6745 20.4863 52.6745 20.4863H122.699Z" fill="white"/>
<path d="M118.835 77.3271C119.25 78.7673 119.292 80.3675 120.142 81.5987C121.301 83.2577 123.58 83.6986 125.605 83.5908C125.872 83.5882 126.136 83.5384 126.386 83.4439C126.665 83.2981 126.903 83.0848 127.078 82.8234C128.322 81.1513 128.299 78.8195 127.685 76.8274C126.834 74.0989 125.032 71.7663 122.607 70.2534C121.281 69.4304 115.54 67.0203 114.923 69.2737C114.404 71.2136 118.27 75.3676 118.835 77.3271Z" fill="#F5C7C8"/>
<path d="M118.835 77.3271C119.25 78.7673 119.292 80.3675 120.142 81.5987C121.301 83.2577 123.58 83.6986 125.605 83.5908C125.872 83.5882 126.136 83.5384 126.386 83.4439C126.665 83.2981 126.903 83.0848 127.078 82.8234C128.322 81.1513 128.299 78.8195 127.685 76.8274C126.834 74.0989 125.032 71.7663 122.607 70.2534C121.281 69.4304 115.54 67.0203 114.923 69.2737C114.404 71.2136 118.27 75.3676 118.835 77.3271Z" fill="url(#paint2_linear_101_605)"/>
<path d="M121.163 136.863C120.941 126.576 120.683 116.066 117.159 106.396C115.157 100.9 112.136 95.7891 110.503 90.172C109.217 85.7469 109.524 81.0474 109.563 76.4361C109.582 73.9933 109.599 71.4983 108.841 69.1763C108.188 67.1483 106.937 65.2901 106.666 63.1738C109.52 65.2541 112.544 67.5663 113.58 70.9431C114.083 72.576 114.063 74.333 114.334 76.0247C115.209 81.4981 119.024 85.9559 121.741 90.786C127.711 101.406 128.455 114.11 128.396 126.291C128.396 128.93 128.318 131.67 127.159 134.044C125.999 136.419 123.762 137.34 121.163 136.863Z" fill="url(#paint3_linear_101_605)"/>
<path d="M58.8782 85.0091C53.8815 90.5903 46.1417 93.3238 41.6675 99.3328C37.6702 104.682 36.9224 111.7 34.9009 118.072C32.6605 125.136 28.7939 131.55 24.95 137.889C24.4438 138.721 23.8821 139.6 22.971 139.962C22.1807 140.289 21.2924 140.129 20.4661 139.962C14.2383 138.656 7.41936 135.371 6.02161 129.156C5.13005 125.178 6.76294 121.073 8.69301 117.481C15.3911 104.97 25.9494 94.6007 31.0766 81.3645C34.4273 72.72 36.1516 62.9194 44.3814 57.4395C44.3749 57.4948 44.3749 57.5507 44.3814 57.606C43.9764 61.0318 44.708 68.4255 44.1626 73.6867C44.1464 73.8778 44.1574 74.0702 44.1952 74.2582C44.4271 75.313 45.3383 76.6422 45.7563 77.4423C47.0299 79.8263 50.5439 79.3006 53.1043 78.4221C55.6646 77.5436 59.1558 76.959 60.4751 79.3332C61.4712 81.1653 60.2759 83.4383 58.8782 85.0091Z" fill="#F5C7C8"/>
<path d="M66.4157 125.443C66.3737 125.474 66.3333 125.508 66.2949 125.544H61.197C61.197 125.544 52.6733 123.751 52.2227 109.385C52.2227 109.385 55.2892 119.051 65.7985 116.984C65.7985 116.984 60.2303 126.06 66.4157 125.443Z" fill="white"/>
<path d="M66.4157 125.443C66.3737 125.474 66.3333 125.508 66.2949 125.544H61.197C61.197 125.544 52.6733 123.751 52.2227 109.385C52.2227 109.385 55.2892 119.051 65.7985 116.984C65.7985 116.984 60.2303 126.06 66.4157 125.443Z" fill="#AAC2D3"/>
<path d="M113.943 42.6582H63.8396C63.3274 42.6582 62.9121 43.0735 62.9121 43.5857C62.9121 44.0979 63.3274 44.5132 63.8396 44.5132H113.943C114.455 44.5132 114.871 44.0979 114.871 43.5857C114.871 43.0735 114.455 42.6582 113.943 42.6582Z" fill="#010101"/>
<path d="M113.943 48.2266H63.8396C63.3274 48.2266 62.9121 48.6418 62.9121 49.154C62.9121 49.6663 63.3274 50.0815 63.8396 50.0815H113.943C114.455 50.0815 114.871 49.6663 114.871 49.154C114.871 48.6418 114.455 48.2266 113.943 48.2266Z" fill="#010101"/>
<path d="M113.943 53.791H63.8396C63.3274 53.791 62.9121 54.2063 62.9121 54.7185C62.9121 55.2307 63.3274 55.646 63.8396 55.646H113.943C114.455 55.646 114.871 55.2307 114.871 54.7185C114.871 54.2063 114.455 53.791 113.943 53.791Z" fill="#010101"/>
<path d="M113.943 59.3594H63.8396C63.3274 59.3594 62.9121 59.7746 62.9121 60.2869C62.9121 60.7991 63.3274 61.2143 63.8396 61.2143H113.943C114.455 61.2143 114.871 60.7991 114.871 60.2869C114.871 59.7746 114.455 59.3594 113.943 59.3594Z" fill="#010101"/>
<path d="M113.943 64.9277H63.8396C63.3274 64.9277 62.9121 65.343 62.9121 65.8552C62.9121 66.3674 63.3274 66.7827 63.8396 66.7827H113.943C114.455 66.7827 114.871 66.3674 114.871 65.8552C114.871 65.343 114.455 64.9277 113.943 64.9277Z" fill="#010101"/>
<path d="M102.882 16.2469V19.2775C102.883 20.1548 102.71 21.0236 102.375 21.8343C102.04 22.6449 101.548 23.3815 100.927 24.0019C100.307 24.6222 99.5706 25.1141 98.7599 25.4494C97.9493 25.7847 97.0804 25.9569 96.2032 25.956H78.3328C77.4551 25.9569 76.5858 25.7848 75.7746 25.4496C74.9634 25.1144 74.2262 24.6226 73.605 24.0024C72.9839 23.3822 72.4911 22.6457 72.1547 21.835C71.8183 21.0243 71.645 20.1553 71.6445 19.2775V16.2469C71.6463 14.4745 72.3518 12.7753 73.606 11.5229C74.8602 10.2705 76.5604 9.56749 78.3328 9.56836H96.2032C97.0803 9.56793 97.9489 9.74038 98.7594 10.0759C99.5699 10.4113 100.306 10.9033 100.927 11.5235C101.547 12.1437 102.039 12.8801 102.374 13.6906C102.71 14.5011 102.882 15.3697 102.882 16.2469Z" fill="#0F75BC"/>
<path d="M71.6934 16.1687V19.2026C71.6908 20.0812 71.8617 20.9516 72.1962 21.7639C72.5307 22.5763 73.0223 23.3146 73.6427 23.9366C74.2632 24.5586 75.0003 25.0519 75.8119 25.3884C76.6234 25.7249 77.4934 25.8979 78.3719 25.8975H79.7141C78.8356 25.8979 77.9656 25.7249 77.1541 25.3884C76.3425 25.0519 75.6054 24.5586 74.985 23.9366C74.3645 23.3146 73.8729 22.5763 73.5384 21.7639C73.2039 20.9516 73.033 20.0812 73.0356 19.2026V16.1687C73.0352 15.2916 73.2076 14.4229 73.5431 13.6125C73.8786 12.802 74.3705 12.0656 74.9907 11.4454C75.611 10.8251 76.3474 10.3332 77.1579 9.99773C77.9683 9.66226 78.837 9.48981 79.7141 9.49024H78.3719C77.4947 9.48981 76.6261 9.66226 75.8156 9.99773C75.0052 10.3332 74.2688 10.8251 73.6485 11.4454C73.0283 12.0656 72.5364 12.802 72.2009 13.6125C71.8654 14.4229 71.693 15.2916 71.6934 16.1687Z" fill="url(#paint4_linear_101_605)"/>
<path d="M102.883 16.2469V19.2775C102.883 20.1548 102.711 21.0236 102.376 21.8343C102.041 22.6449 101.549 23.3815 100.928 24.0019C100.308 24.6222 99.5714 25.1141 98.7608 25.4494C97.9501 25.7847 97.0813 25.9569 96.204 25.956H79.6727C78.7949 25.9569 77.9256 25.7848 77.1144 25.4496C76.3032 25.1144 75.566 24.6226 74.9449 24.0024C74.3238 23.3822 73.8309 22.6457 73.4946 21.835C73.1582 21.0243 72.9848 20.1553 72.9844 19.2775V16.2469C72.9861 14.4745 73.6916 12.7753 74.9458 11.5229C76.2 10.2705 77.9003 9.56749 79.6727 9.56836H96.204C97.0812 9.56793 97.9498 9.74038 98.7603 10.0759C99.5707 10.4113 100.307 10.9033 100.927 11.5235C101.548 12.1437 102.04 12.8801 102.375 13.6906C102.711 14.5011 102.883 15.3697 102.883 16.2469Z" fill="url(#paint5_linear_101_605)"/>
<path d="M44.1506 73.6861C44.1344 73.8772 44.1454 74.0696 44.1832 74.2576C43.5562 73.8396 42.8443 72.4778 42.2238 70.8416C41.8417 69.8391 40.875 64.9959 40.875 63.9215C40.875 61.4493 42.5765 59.382 44.3661 57.6055C43.9644 61.0313 44.6894 68.425 44.1506 73.6861Z" fill="url(#paint6_linear_101_605)"/>
<path d="M152.312 129.717C150.384 131.131 148.279 132.286 146.051 133.153C142.194 134.648 138.086 135.318 134.128 136.471C132.371 136.977 130.647 137.591 128.955 138.26C126.924 122.784 122.936 107.396 115.333 93.8458C113.358 90.309 111.852 87.3633 110.556 83.5195C109.259 79.6756 109.903 69.2937 111.17 69.0978C113.325 68.7451 114.72 71.2597 115.415 73.327C116.581 76.6972 117.636 79.7834 120.797 81.818C122.149 82.6965 124.017 83.2353 125.301 82.2556C125.937 81.7077 126.361 80.9543 126.499 80.1263C127.071 77.4778 125.905 74.6561 123.962 72.7653C122.019 70.8744 119.412 69.8261 116.777 69.2415C115.262 68.9149 113.622 68.6928 112.469 67.6576C111.548 66.8248 111.088 65.3421 111.767 64.3102C112.371 63.3859 115.964 65.4858 117.041 65.3291C119.422 65.0025 119.543 64.529 121.94 64.5518C124.337 64.5747 126.806 64.7935 129.037 65.7144C131.323 66.6942 133.266 68.3499 135.078 70.0743C137.89 72.7555 140.415 73.5686 142.854 76.6058C144.392 78.5294 145.875 80.5476 146.698 82.8794C148.171 87.053 147.325 91.6447 146.897 96.06C145.827 107.295 147.583 118.619 152.005 129.002C152.09 129.234 152.214 129.475 152.312 129.717Z" fill="#F5C7C8"/>
<path d="M127.11 88.5031C129.069 91.7918 131.525 94.744 133.968 97.68C134.654 98.5029 135.768 99.4043 136.662 98.8132C137.345 98.3592 137.316 97.3567 137.146 96.5565C136.417 93.1471 134.533 90.0707 132.211 87.4614C129.889 84.852 127.152 82.6672 124.426 80.4922C124.52 80.5673 123.462 82.0369 123.906 82.824C124.657 84.1237 126.323 87.1772 127.11 88.5031Z" fill="url(#paint7_linear_101_605)"/>
<path d="M107.062 64.4602C107.062 64.4602 126.314 85.1064 130.249 89.205C134.184 93.3035 137.434 96.3178 137.434 96.3178C137.434 96.3178 141.3 96.7032 141.454 95.3903C141.607 94.0775 112.15 65.466 109.211 64.0748L106.271 62.6836L107.062 64.4602Z" fill="#0F75BC"/>
<path d="M141.471 95.391C141.395 96.0441 140.396 96.2793 139.416 96.3446C138.763 96.3828 138.108 96.3719 137.457 96.3119C137.457 96.3119 134.207 93.3042 130.272 89.2056C126.337 85.1071 107.085 64.4576 107.085 64.4576L106.314 62.6777L109.254 64.0755C112.167 65.47 141.64 94.0716 141.471 95.391Z" fill="url(#paint8_linear_101_605)"/>
<path d="M139.769 96.1585L139.416 96.3446C138.763 96.3828 138.108 96.3719 137.457 96.3119C137.457 96.3119 134.207 93.3042 130.272 89.2056C126.337 85.1071 107.085 64.4576 107.085 64.4576L106.314 62.6777L139.769 96.1585Z" fill="#0F75BC"/>
<path d="M135.176 92.9055C134.951 93.3398 134.618 93.9146 134.151 93.7709C134.029 93.7265 133.917 93.6563 133.824 93.5652L126.538 87.2949C126.398 88.4216 127.417 89.3099 128.299 90.0251C129.92 91.3299 131.421 92.7781 132.783 94.3522C133.165 94.7931 133.566 95.2666 134.125 95.4495C134.683 95.6324 135.431 95.3646 135.519 94.7964C135.522 94.6762 135.547 94.5575 135.594 94.4469C135.66 94.3582 135.749 94.2902 135.852 94.251L137.035 93.673C137.495 93.4795 137.917 93.2064 138.282 92.8663C138.463 92.6942 138.595 92.4783 138.667 92.2396C138.739 92.001 138.748 91.7477 138.694 91.5045C138.125 89.6201 135.572 92.1348 135.176 92.9055Z" fill="white"/>
<path d="M139.413 96.7656C139.955 97.2751 140.595 97.7649 141.339 97.7976C141.473 97.8121 141.608 97.7958 141.734 97.75C141.861 97.7041 141.975 97.6299 142.068 97.5331C142.141 97.4241 142.185 97.298 142.196 97.1669C142.206 97.0358 142.182 96.9043 142.127 96.7852C142.012 96.5471 141.856 96.3314 141.666 96.1484L140.912 95.3254C140.666 94.9955 140.324 94.751 139.932 94.6265C139.491 94.5482 138.475 94.8845 138.384 95.4005C138.293 95.9165 139.119 96.4684 139.413 96.7656Z" fill="white"/>
</g>
<defs>
<linearGradient id="paint0_linear_101_605" x1="44.0527" y1="88.6066" x2="60.3849" y2="88.6066" gradientUnits="userSpaceOnUse">
<stop stop-color="#010101" stop-opacity="0"/>
<stop offset="0.95" stop-color="#010101"/>
</linearGradient>
<linearGradient id="paint1_linear_101_605" x1="59.659" y1="167.869" x2="115.948" y2="-28.8322" gradientUnits="userSpaceOnUse">
<stop stop-color="#010101" stop-opacity="0"/>
<stop offset="0.47" stop-color="#010101" stop-opacity="0.47"/>
<stop offset="0.95" stop-color="#010101"/>
</linearGradient>
<linearGradient id="paint2_linear_101_605" x1="5147.65" y1="3856.57" x2="7076.19" y2="2546.32" gradientUnits="userSpaceOnUse">
<stop stop-color="#010101" stop-opacity="0"/>
<stop offset="0.47" stop-color="#010101" stop-opacity="0.47"/>
<stop offset="0.95" stop-color="#010101"/>
</linearGradient>
<linearGradient id="paint3_linear_101_605" x1="7835.31" y1="23921.7" x2="14452.8" y2="22867.2" gradientUnits="userSpaceOnUse">
<stop stop-color="#010101" stop-opacity="0"/>
<stop offset="0.47" stop-color="#010101" stop-opacity="0.47"/>
<stop offset="0.95" stop-color="#010101"/>
</linearGradient>
<linearGradient id="paint4_linear_101_605" x1="1828.64" y1="943.227" x2="2634.94" y2="978.733" gradientUnits="userSpaceOnUse">
<stop stop-color="#010101" stop-opacity="0"/>
<stop offset="0.47" stop-color="#010101" stop-opacity="0.47"/>
<stop offset="0.95" stop-color="#010101"/>
</linearGradient>
<linearGradient id="paint5_linear_101_605" x1="88.9965" y1="0.773626" x2="87.148" y2="30.3191" gradientUnits="userSpaceOnUse">
<stop stop-color="white" stop-opacity="0"/>
<stop offset="0.95" stop-color="white"/>
</linearGradient>
<linearGradient id="paint6_linear_101_605" x1="497.443" y1="3340.91" x2="1450.91" y2="3428.36" gradientUnits="userSpaceOnUse">
<stop stop-color="#010101" stop-opacity="0"/>
<stop offset="0.95" stop-color="#010101"/>
</linearGradient>
<linearGradient id="paint7_linear_101_605" x1="5987.12" y1="5239.01" x2="4347.7" y2="5455.55" gradientUnits="userSpaceOnUse">
<stop stop-color="#010101" stop-opacity="0"/>
<stop offset="0.47" stop-color="#010101" stop-opacity="0.47"/>
<stop offset="0.95" stop-color="#010101"/>
</linearGradient>
<linearGradient id="paint8_linear_101_605" x1="14505.5" y1="8107.31" x2="13893.2" y2="8834.28" gradientUnits="userSpaceOnUse">
<stop stop-color="white" stop-opacity="0"/>
<stop offset="0.95" stop-color="white"/>
</linearGradient>
<clipPath id="clip0_101_605">
<rect width="165" height="152.11" fill="white"/>
</clipPath>
</defs>
</svg>
